<svg id="Layer_1" data-name="Layer 1" xmlns="http://www.w3.org/2000/svg" viewBox="0 0 503.24 269.26"><defs><style>.cls-1{fill:#27348b;}</style></defs><path class="cls-1" d="M749.69,562.68c-22.33,0-37.92-16.72-37.92-40.69V458.68a.33.33,0,0,1,.31-.37h19.67a.36.36,0,0,1,.34.37v60.39c0,7.7,2.18,25.47,22.38,25.47,14.92,0,23.46-9.25,23.46-25.47V458.68a.35.35,0,0,1,.32-.37h19.67a.34.34,0,0,1,.34.34v82a166.56,166.56,0,0,0,1,18.54.45.45,0,0,1,0,.28.34.34,0,0,1-.28,0H780.23a.34.34,0,0,1-.34-.28,78.07,78.07,0,0,1-.77-8.49.72.72,0,0,0-.51-.68h0a.78.78,0,0,0-.68.28c-8.32,11.49-23.57,12.37-28,12.37" transform="translate(-711.76 -369.72)"/><path class="cls-1" d="M897.74,559.54a.34.34,0,0,1-.34-.34V498.81c0-16.56-7.76-24.94-23-24.94-14,0-23,10.7-23,27.23v58.22a.34.34,0,0,1-.34.34H831.37a.35.35,0,0,1-.37-.31V458.68a.37.37,0,0,1,.37-.37h19.22a.34.34,0,0,1,.34.34v10.81a.73.73,0,0,0,.5.68h.15a.7.7,0,0,0,.65-.29,35,35,0,0,1,29.23-14.46c22.36,0,36.29,15.34,36.29,40.08v63.85a.34.34,0,0,1-.34.34h0Z" transform="translate(-711.76 -369.72)"/><rect class="cls-1" x="236.58" y="88.58" width="20.12" height="101.24" rx="0.37"/><path class="cls-1" d="M1001.58,378.89h212.83a.37.37,0,0,1,.36.37h0v15.91a.36.36,0,0,1-.36.36H1001.58a.34.34,0,0,1-.34-.34V379.26A.37.37,0,0,1,1001.58,378.89Z" transform="translate(-711.76 -369.72)"/><rect class="cls-1" x="0.06" y="252.65" width="256.64" height="16.61" rx="0.37"/><path class="cls-1" d="M1164.34,602.39c-24.91,0-44.12-15.51-46.7-37.72a.36.36,0,0,1,.28-.4l19-4.39h.28a.38.38,0,0,1,.14.26,26.44,26.44,0,0,0,27,24.34c20.69,0,30.31-10.25,30.31-32.24V541.63a.71.71,0,0,0-.51-.68H1194a.69.69,0,0,0-.65.25,35.18,35.18,0,0,1-29,13.5c-26.95,0-46.5-20.63-46.5-49s19.55-49.28,46.5-49.28a39.1,39.1,0,0,1,23.29,6.8.3.3,0,0,1,0,.44h0l-7,13a.3.3,0,0,1-.31.2,28.87,28.87,0,0,0-13.13-3.05c-17.12,0-28.64,12.79-28.64,31.84,0,19.61,11,31.81,28.64,31.81,17,0,28.3-12.8,28.3-31.81v-47a.36.36,0,0,1,.34-.37h18.79a.36.36,0,0,1,.37.37h0v93c0,15.26-5,50.72-50.66,50.72" transform="translate(-711.76 -369.72)"/><path class="cls-1" d="M1001.58,599.25a.33.33,0,0,1-.37-.31V458.68a.36.36,0,0,1,.37-.37h19a.34.34,0,0,1,.34.34v11.91a.7.7,0,0,0,.51.68h0a.67.67,0,0,0,.65-.28c6.73-9.51,18.37-15,32-15,28.3,0,46.5,20.74,46.5,52.81s-18.82,53.35-47,53.35A41.86,41.86,0,0,1,1029.4,555a.31.31,0,0,1,0-.44h0l7.41-13.84a.48.48,0,0,1,.23-.17h.25a27.93,27.93,0,0,0,13.39,3.31c17.52,0,29.26-14.15,29.26-35.18s-11.74-34.75-29.26-34.75-29.49,14.29-29.49,34.75v90.26a.34.34,0,0,1-.34.34h0Z" transform="translate(-711.76 -369.72)"/><path class="cls-1" d="M738.91,403.91a.24.24,0,0,1-.23-.17l-3.14-8.18H721.81l-3,8.1a.29.29,0,0,1-.25.17h-6a.28.28,0,0,1-.22,0,.3.3,0,0,1,0-.23l12.93-33.34a.24.24,0,0,1,.23,0h6.53a.24.24,0,0,1,.23,0l13,33.4a.28.28,0,0,1,0,.22.22.22,0,0,1-.22,0Zm-5.47-14.15-4.69-12.65L724,389.76Z" transform="translate(-711.76 -369.72)"/><path class="cls-1" d="M755.35,404.14a3.36,3.36,0,1,1,.62,0,3.21,3.21,0,0,1-.62,0" transform="translate(-711.76 -369.72)"/><path class="cls-1" d="M768.43,403.91a.22.22,0,0,1-.23-.22V370.37a.22.22,0,0,1,.2-.25h11.83c9.82,0,16.41,6.82,16.41,17a15.76,15.76,0,0,1-14.48,16.95,16.52,16.52,0,0,1-2,0ZM780,398.25c5,0,10.3-2.83,10.3-11.32S785,375.61,780,375.61h-5.66v22.47Z" transform="translate(-711.76 -369.72)"/><path class="cls-1" d="M804.43,404.14a3.37,3.37,0,1,1,.61,0,3.11,3.11,0,0,1-.61,0" transform="translate(-711.76 -369.72)"/><path class="cls-1" d="M840,403.91a.26.26,0,0,1-.26-.25V381.35h-7.72a.25.25,0,0,1-.3-.2.33.33,0,0,1,0-.14v-4.07a.26.26,0,0,1,.26-.26,8.15,8.15,0,0,0,8.49-6,.28.28,0,0,1,.25-.19h5.16a.25.25,0,0,1,.25.25v32.92a.25.25,0,0,1-.25.25Z" transform="translate(-711.76 -369.72)"/><path class="cls-1" d="M868.39,404.68A11.83,11.83,0,0,1,855.6,394a.25.25,0,0,1,.19-.25l6-1.25h.14a.34.34,0,0,1,0,.2,6.1,6.1,0,0,0,6,6.15h.26a5.43,5.43,0,0,0,6-4.83l0-.43a5.13,5.13,0,0,0-5-5.21c-.21,0-.42,0-.62,0a6.44,6.44,0,0,0-3,.54h0a.3.3,0,0,1-.23,0l-2.83-4.53a.26.26,0,0,1,0-.31l8.49-7.67H857a.31.31,0,0,1-.25-.26v-5.46a.28.28,0,0,1,.25-.25h22.93a.25.25,0,0,1,.25.25v5.1l-8.49,7.58a9.94,9.94,0,0,1,9.46,10.25c0,5.46-4.31,11-12.57,11" transform="translate(-711.76 -369.72)"/><path class="cls-1" d="M901.61,404.68a12.19,12.19,0,0,1-10.69-5.5,25.16,25.16,0,0,1,0-23.83,13.1,13.1,0,0,1,21.36,0,25.55,25.55,0,0,1,0,23.95,12.22,12.22,0,0,1-10.67,5.49m0-29.07a5.65,5.65,0,0,0-4.86,2.35,14.83,14.83,0,0,0-2.3,9.26,15.05,15.05,0,0,0,2.3,9.22,6.23,6.23,0,0,0,8.75,1,6.12,6.12,0,0,0,1-1,20.18,20.18,0,0,0,0-18.48,5.66,5.66,0,0,0-4.87-2.35" transform="translate(-711.76 -369.72)"/><path class="cls-1" d="M935.92,404.68c-7.45,0-12.43-3.94-12.43-9.8a8.78,8.78,0,0,1,5.66-8.09,8.49,8.49,0,0,1-4.89-7.5c0-5.66,4.89-9.57,11.66-9.57s11.71,4,11.71,9.57a8.49,8.49,0,0,1-4.89,7.39,9,9,0,0,1,5.66,8.09c0,5.86-5,9.79-12.48,9.79m0-15.22c-4,0-5.89,2.49-5.89,4.81s1.84,4.78,5.89,4.78,5.94-2.41,5.94-4.78-1.87-4.81-5.94-4.81m0-14.16a4.65,4.65,0,0,0-5.08,4.17,2.46,2.46,0,0,0,0,.28,5.18,5.18,0,1,0,5.1-4.28" transform="translate(-711.76 -369.72)"/></svg>